<svg width="328.581" height="137.026" viewBox="0 0 1314.323 548.104" version="1.1" id="svg5" xmlns="http://www.w3.org/2000/svg"><g id="layer1"><g aria-label="kiki" id="text3267" style="fill:#e5e9f0;stroke-width:12.964px;fill-opacity:1;font-size:533.333px;line-height:1.25"><path d="M0 369.6V13.333h73.6v203.734l92.8-98.134h84.8l-98.133 101.334L256.533 369.6h-85.866l-67.2-98.134L73.6 302.933V369.6z" style="-inkscape-font-specification:&quot;Gantari Bold&quot;;fill:#e5e9f0;fill-opacity:1;font-family:Gantari;font-weight:700" id="path13"/><path d="M295.466 369.6V118.933h73.6V369.6Zm36.8-289.067q-19.733 0-30.933-11.2-11.2-11.733-11.2-29.333 0-17.6 11.2-28.8T332.266 0q19.2 0 30.4 11.733 11.733 11.2 11.733 28.8t-11.733 28.8q-11.2 11.2-30.4 11.2z" style="-inkscape-font-specification:&quot;Gantari Bold&quot;;fill:#e5e9f0;fill-opacity:1;font-family:Gantari;font-weight:700" id="path15"/><path d="M433.066 369.6V13.333h73.6v203.734l92.8-98.134h84.8l-98.134 101.334L689.6 369.6h-85.867l-67.2-98.134-29.867 31.467V369.6z" style="-inkscape-font-specification:&quot;Gantari Bold&quot;;fill:#e5e9f0;fill-opacity:1;font-family:Gantari;font-weight:700" id="path17"/><path d="M728.531 369.6V118.933h73.6V369.6Zm36.8-289.067q-19.733 0-30.933-11.2-11.2-11.733-11.2-29.333 0-17.6 11.2-28.8T765.331 0q19.2 0 30.4 11.733 11.734 11.2 11.734 28.8t-11.734 28.8q-11.2 11.2-30.4 11.2z" style="-inkscape-font-specification:&quot;Gantari Bold&quot;;fill:#e5e9f0;fill-opacity:1;font-family:Gantari;font-weight:700" id="path19"/></g></g><g id="layer2"><g id="g41233" transform="rotate(-4.213 -4878.821 2484.03)"><path id="rect16782" style="fill:#5e81ac;stroke-width:.924772px;fill-opacity:1" d="M787.564 622.297h655.793v337.994H787.564Z"/><g aria-label="pnt" id="text18382" style="fill:#d7e3f4;stroke-width:1.75808px;font-size:337.551px;line-height:1.25"><path d="M875.934 936.542V716.459h37.131v22.953q7.426-11.814 20.928-18.903 13.502-7.426 32.405-7.426 21.603 0 38.818 10.127 17.216 9.789 27.005 28.354 10.126 18.565 10.126 44.22 0 25.653-10.126 44.218-9.79 18.566-27.005 28.692-17.215 9.79-38.818 9.79-17.89 0-31.055-6.414-13.164-6.414-20.928-17.215v81.687zm82.025-91.476q13.165 0 23.291-6.076 10.127-6.076 15.865-17.215 5.739-11.14 5.739-25.992 0-15.19-5.739-25.991-5.738-11.14-15.865-17.215-10.126-6.076-23.29-6.076-13.165 0-23.292 6.076-10.126 6.076-15.865 17.215-5.738 10.801-5.738 25.991 0 14.852 5.4 25.992 5.74 11.139 15.866 17.215 10.464 6.076 23.628 6.076z" style="-inkscape-font-specification:&quot;Gantari Semi-Bold&quot;;font-family:Gantari;font-weight:600" id="path23"/><path d="M1079.815 875.108v-158.65h37.13v21.604q7.089-11.477 19.916-18.228 12.827-6.75 31.392-6.75 27.342 0 42.531 15.527 15.528 15.527 15.528 47.932v98.565h-38.481V782.28q0-18.228-7.764-27.004-7.426-8.776-22.953-8.776-18.228 0-28.692 12.49-10.127 12.151-10.127 34.092v82.025z" style="-inkscape-font-specification:&quot;Gantari Semi-Bold&quot;;font-family:Gantari;font-weight:600" id="path25"/><path d="M1333.99 877.133q-27.004 0-39.494-12.152-12.49-12.152-12.49-37.806v-78.311h-33.754v-32.405h33.755v-45.232h38.818v45.232h39.831v32.405h-39.83V823.8q0 10.464 5.4 15.865 5.4 5.063 16.202 5.063 4.051 0 9.452-.337 5.738-.338 8.776-1.013v30.717q-4.726 1.35-12.152 2.025-7.088 1.013-14.514 1.013z" style="-inkscape-font-specification:&quot;Gantari Semi-Bold&quot;;font-family:Gantari;font-weight:600" id="path27"/></g></g></g></svg>