<svg width="90.478" height="90.478" viewBox="0 0 361.911 361.911" version="1.1" id="svg5" xmlns="http://www.w3.org/2000/svg"><g id="layer2" transform="translate(0 -23.349)"><g id="g41233" transform="rotate(-4.213 -7410.048 11040.409)"><path id="rect16782" style="fill:#5e81ac;stroke-width:.663902px;fill-opacity:1" d="M787.564 622.297h337.993V960.29H787.563Z"/><g aria-label="pnt" id="text18382" style="fill:#d7e3f4;stroke-width:1.75808px;font-size:337.551px;line-height:1.25"><path d="M875.934 936.542V716.459h37.131v22.953q7.426-11.814 20.928-18.903 13.502-7.426 32.405-7.426 21.603 0 38.818 10.127 17.216 9.789 27.005 28.354 10.126 18.565 10.126 44.22 0 25.653-10.126 44.218-9.79 18.566-27.005 28.692-17.215 9.79-38.818 9.79-17.89 0-31.055-6.414-13.164-6.414-20.928-17.215v81.687zm82.025-91.476q13.165 0 23.291-6.076 10.127-6.076 15.865-17.215 5.739-11.14 5.739-25.992 0-15.19-5.739-25.991-5.738-11.14-15.865-17.215-10.126-6.076-23.29-6.076-13.165 0-23.292 6.076-10.126 6.076-15.865 17.215-5.738 10.801-5.738 25.991 0 14.852 5.4 25.992 5.74 11.139 15.866 17.215 10.464 6.076 23.628 6.076z" style="-inkscape-font-specification:&quot;Gantari Semi-Bold&quot;;font-family:Gantari;font-weight:600" id="path23"/></g></g></g></svg>